<svg width="320" height="320" viewBox="0 0 320 320" fill="none" xmlns="http://www.w3.org/2000/svg">
<rect width="320" height="320" rx="60" fill="url(#paint0_linear_27_2)"/>
<path d="M175.925 104.75C178.949 104.75 181.4 102.299 181.4 99.275C181.4 96.2512 178.949 93.8 175.925 93.8C172.901 93.8 170.45 96.2512 170.45 99.275C170.45 102.299 172.901 104.75 175.925 104.75Z" fill="white"/>
<path d="M219.725 148.55C222.749 148.55 225.2 146.099 225.2 143.075C225.2 140.051 222.749 137.6 219.725 137.6C216.701 137.6 214.25 140.051 214.25 143.075C214.25 146.099 216.701 148.55 219.725 148.55Z" fill="white"/>
<path d="M99.275 170.45C102.299 170.45 104.75 167.999 104.75 164.975C104.75 161.951 102.299 159.5 99.275 159.5C96.2512 159.5 93.8 161.951 93.8 164.975C93.8 167.999 96.2512 170.45 99.275 170.45Z" fill="white"/>
<path d="M121.175 115.7C124.199 115.7 126.65 113.249 126.65 110.225C126.65 107.201 124.199 104.75 121.175 104.75C118.151 104.75 115.7 107.201 115.7 110.225C115.7 113.249 118.151 115.7 121.175 115.7Z" fill="white"/>
<path d="M159.5 269C130.459 269 102.607 257.463 82.0718 236.928C61.5366 216.393 50 188.541 50 159.5C50 130.459 61.5366 102.607 82.0718 82.0718C102.607 61.5366 130.459 50 159.5 50C188.541 50 216.393 60.3829 236.928 78.8646C257.463 97.3463 269 122.413 269 148.55C269 163.071 263.232 176.996 252.964 187.264C242.696 197.532 228.771 203.3 214.25 203.3H189.612C186.054 203.3 182.565 204.291 179.538 206.162C176.511 208.033 174.065 210.71 172.473 213.893C170.882 217.076 170.208 220.639 170.527 224.183C170.847 227.728 172.147 231.113 174.283 233.96L177.567 238.34C179.703 241.187 181.003 244.572 181.323 248.117C181.642 251.661 180.968 255.224 179.377 258.407C177.785 261.59 175.339 264.267 172.312 266.138C169.285 268.009 165.796 269 162.237 269H159.5Z" stroke="white" stroke-width="14" stroke-linecap="round" stroke-linejoin="round"/>
<path d="M175.925 104.75C178.949 104.75 181.4 102.299 181.4 99.275C181.4 96.2512 178.949 93.8 175.925 93.8C172.901 93.8 170.45 96.2512 170.45 99.275C170.45 102.299 172.901 104.75 175.925 104.75Z" stroke="white" stroke-width="14" stroke-linecap="round" stroke-linejoin="round"/>
<path d="M219.725 148.55C222.749 148.55 225.2 146.099 225.2 143.075C225.2 140.051 222.749 137.6 219.725 137.6C216.701 137.6 214.25 140.051 214.25 143.075C214.25 146.099 216.701 148.55 219.725 148.55Z" stroke="white" stroke-width="14" stroke-linecap="round" stroke-linejoin="round"/>
<path d="M99.275 170.45C102.299 170.45 104.75 167.999 104.75 164.975C104.75 161.951 102.299 159.5 99.275 159.5C96.2512 159.5 93.8 161.951 93.8 164.975C93.8 167.999 96.2512 170.45 99.275 170.45Z" stroke="white" stroke-width="14" stroke-linecap="round" stroke-linejoin="round"/>
<path d="M121.175 115.7C124.199 115.7 126.65 113.249 126.65 110.225C126.65 107.201 124.199 104.75 121.175 104.75C118.151 104.75 115.7 107.201 115.7 110.225C115.7 113.249 118.151 115.7 121.175 115.7Z" stroke="white" stroke-width="14" stroke-linecap="round" stroke-linejoin="round"/>
<defs>
<linearGradient id="paint0_linear_27_2" x1="320" y1="320" x2="-3.89293e-06" y2="-22.5" gradientUnits="userSpaceOnUse">
<stop stop-color="#F706FF"/>
<stop offset="1" stop-color="#FFE100"/>
</linearGradient>
</defs>
</svg>
